<svg xmlns="http://www.w3.org/2000/svg" viewBox="0 0 34.85 34.86"><defs><style>.cls-1{fill:#ff641f;stroke:#ff641f;}</style></defs><g id="Capa_2" data-name="Capa 2"><g id="Capa_1-2" data-name="Capa 1"><g id="chat"><g id="Grupo_74" data-name="Grupo 74"><g id="Grupo_73" data-name="Grupo 73"><path id="Trazado_25" data-name="Trazado 25" class="cls-1" d="M31.53,13.91H24.69V3.33A2.81,2.81,0,0,0,21.88.5H3.32A2.83,2.83,0,0,0,.5,3.33v12.1a2.83,2.83,0,0,0,2.78,2.82v3.67a.94.94,0,0,0,.49.82.87.87,0,0,0,.45.12,1,1,0,0,0,.5-.14l7.1-4.46H13V27a2.82,2.82,0,0,0,2.82,2.82H23l7.1,4.46a1.13,1.13,0,0,0,.95,0,.9.9,0,0,0,.49-.83V29.78A2.84,2.84,0,0,0,34.35,27V16.73a2.81,2.81,0,0,0-2.81-2.82Zm-20,2.46a1,1,0,0,0-.5.14l-5.9,3.7v-2.9a.94.94,0,0,0-.94-.94H3.32a.94.94,0,0,1-.94-.94h0V3.33a1,1,0,0,1,.93-1H21.87a.94.94,0,0,1,.94.94h0v12.1a.94.94,0,0,1-.94.93H11.55ZM32.47,27a.94.94,0,0,1-.93.94h-.9a.93.93,0,0,0-.94.93h0v2.9L23.8,28a1,1,0,0,0-.5-.14H15.8a.94.94,0,0,1-.94-.94h0v-8.7h7a2.84,2.84,0,0,0,2.8-2.46h6.86a.94.94,0,0,1,.94.93h0V27Z"/></g></g><g id="Grupo_76" data-name="Grupo 76"><g id="Grupo_75" data-name="Grupo 75"><path id="Trazado_26" data-name="Trazado 26" class="cls-1" d="M6.47,8.43H5.74a.94.94,0,1,0-.06,1.88h.79a.94.94,0,0,0,.06-1.88Z"/></g></g><g id="Grupo_78" data-name="Grupo 78"><g id="Grupo_77" data-name="Grupo 77"><path id="Trazado_27" data-name="Trazado 27" class="cls-1" d="M13,8.43h-.73a.94.94,0,1,0-.07,1.88H13A.94.94,0,0,0,13,8.43Z"/></g></g><g id="Grupo_80" data-name="Grupo 80"><g id="Grupo_79" data-name="Grupo 79"><path id="Trazado_28" data-name="Trazado 28" class="cls-1" d="M19.46,8.43h-.73a.94.94,0,1,0-.07,1.88h.8a.94.94,0,0,0,0-1.88Z"/></g></g><g id="Grupo_82" data-name="Grupo 82"><g id="Grupo_81" data-name="Grupo 81"><path id="Trazado_29" data-name="Trazado 29" class="cls-1" d="M18.33,20.9h-.64a.94.94,0,1,0-.06,1.88h.7a1,1,0,0,0,1-.91.93.93,0,0,0-.91-1Z"/></g></g><g id="Grupo_84" data-name="Grupo 84"><g id="Grupo_83" data-name="Grupo 83"><path id="Trazado_30" data-name="Trazado 30" class="cls-1" d="M24,20.9h-.64a.94.94,0,1,0-.06,1.88H24A.94.94,0,0,0,24,20.9Z"/></g></g><g id="Grupo_86" data-name="Grupo 86"><g id="Grupo_85" data-name="Grupo 85"><path id="Trazado_31" data-name="Trazado 31" class="cls-1" d="M29.63,20.9H29a.94.94,0,0,0-.91,1,1,1,0,0,0,.91.91h.64a.94.94,0,0,0,.06-1.88Z"/></g></g></g></g></g></svg>