<svg xmlns="http://www.w3.org/2000/svg" viewBox="0 0 18.9 18.9"><defs><style>.cls-1{fill:#fff;}</style></defs><g id="Capa_2" data-name="Capa 2"><g id="Capa_1-2" data-name="Capa 1"><path class="cls-1" d="M12.26,13.24h0L11.81,13a7.06,7.06,0,0,0,0-.92l.45-.26a1,1,0,0,0,.42-1.29l-.43-1A1,1,0,0,0,11,8.87l-.5.13a4.91,4.91,0,0,0-.65-.64c0-.17.09-.34.13-.51a1,1,0,0,0-.61-1.21l-1-.42a1,1,0,0,0-1.29.42c-.09.15-.18.3-.26.45a4.71,4.71,0,0,0-.92,0c-.09-.15-.18-.3-.26-.45a1,1,0,0,0-1.29-.42l-1,.42a1,1,0,0,0-.61,1.21c0,.17.09.34.13.51A4.84,4.84,0,0,0,2.22,9l-.51-.13A1,1,0,0,0,.5,9.48l-.42,1A1,1,0,0,0,.5,11.8l.45.26A4.71,4.71,0,0,0,1,13l-.45.26a1,1,0,0,0-.42,1.29l.42,1a1,1,0,0,0,1.21.61L2.22,16a4.91,4.91,0,0,0,.64.65c0,.17-.09.34-.13.5a1,1,0,0,0,.61,1.21l1,.43a1.77,1.77,0,0,0,.4.08,1.07,1.07,0,0,0,.89-.5c.08-.15.17-.3.26-.45a7.06,7.06,0,0,0,.92,0c.08.15.17.3.26.45a1.05,1.05,0,0,0,.89.5,1.14,1.14,0,0,0,.4-.08l1-.43A1,1,0,0,0,10,17.18c0-.16-.08-.33-.13-.5a5.62,5.62,0,0,0,.65-.64l.51.13a1,1,0,0,0,1.2-.62l.43-1A1,1,0,0,0,12.26,13.24Zm-3.73,3.6c0,.13.07.27.11.41l-.52.21-.21-.37a1.05,1.05,0,0,0-1-.51,4.18,4.18,0,0,1-1,0,1,1,0,0,0-1,.51c-.07.13-.14.25-.22.37l-.51-.21c0-.14.07-.28.1-.41a1,1,0,0,0-.36-1.1,4.27,4.27,0,0,1-.71-.7,1,1,0,0,0-1.09-.37l-.41.11-.21-.52.36-.21a1,1,0,0,0,.52-1,4.18,4.18,0,0,1,0-1,1,1,0,0,0-.52-1l-.36-.22.21-.51.41.11A1,1,0,0,0,3.15,10a4.77,4.77,0,0,1,.71-.71A1,1,0,0,0,4.23,8.2c0-.13-.08-.27-.11-.41l.52-.21L4.85,8a1,1,0,0,0,1,.51,4.18,4.18,0,0,1,1,0,1.05,1.05,0,0,0,1-.51l.21-.37.52.21c0,.14-.07.27-.11.41A1,1,0,0,0,8.9,9.29a4.27,4.27,0,0,1,.7.71,1,1,0,0,0,1.1.37l.41-.11.21.52L11,11a1,1,0,0,0-.51,1,4.18,4.18,0,0,1,0,1,1,1,0,0,0,.51,1l.37.21-.21.52-.42-.11A1,1,0,0,0,9.6,15a3.62,3.62,0,0,1-.71.7A1,1,0,0,0,8.53,16.84Z"/><path class="cls-1" d="M9.22,11.34A3.05,3.05,0,0,0,7.56,9.67a3,3,0,0,0-2.36,0A3.08,3.08,0,0,0,6.38,15.6a3.21,3.21,0,0,0,1.17-.23h0A3.09,3.09,0,0,0,9.22,11.34ZM8,13.17a1.75,1.75,0,0,1-.93.94H7a1.72,1.72,0,0,1-2.24-.93,1.68,1.68,0,0,1,0-1.32,1.64,1.64,0,0,1,.93-.93,1.7,1.7,0,0,1,.66-.14A1.73,1.73,0,0,1,8,11.86,1.7,1.7,0,0,1,8,13.17Z"/><path class="cls-1" d="M18.19,3.64h0l-.33-.05a3.49,3.49,0,0,0-.22-.53l.2-.27a.84.84,0,0,0-.08-1.08l-.57-.57a.84.84,0,0,0-1.08-.08l-.27.2A3.21,3.21,0,0,0,15.3,1c0-.12,0-.23,0-.33A.84.84,0,0,0,14.43,0h-.8a.83.83,0,0,0-.82.71c0,.1,0,.21-.05.33a4.08,4.08,0,0,0-.54.22L12,1.06a.83.83,0,0,0-1.08.08l-.57.57a.82.82,0,0,0-.09,1.08l.2.27a4.93,4.93,0,0,0-.22.53l-.33.05a.83.83,0,0,0-.7.82v.81a.82.82,0,0,0,.7.82l.33,0a4.93,4.93,0,0,0,.22.53l-.2.27A.82.82,0,0,0,10.31,8l.57.57A.82.82,0,0,0,12,8.67l.26-.2a4.16,4.16,0,0,0,.54.23c0,.11,0,.22.05.33a.83.83,0,0,0,.82.7h.81A.84.84,0,0,0,15.26,9c0-.1,0-.21,0-.32a3.25,3.25,0,0,0,.54-.23l.27.2a.82.82,0,0,0,1.08-.08L17.76,8a.83.83,0,0,0,.08-1.08l-.2-.26a4.08,4.08,0,0,0,.22-.54l.33,0a.83.83,0,0,0,.71-.82V4.46A.83.83,0,0,0,18.19,3.64Zm-1.37,2a2.7,2.7,0,0,1-.27.66.82.82,0,0,0,.07.91,2.43,2.43,0,0,1,.14.2l-.19.19-.19-.15a.83.83,0,0,0-.92-.06,2.7,2.7,0,0,1-.66.27.83.83,0,0,0-.6.7l0,.24h-.28l0-.24a.83.83,0,0,0-.6-.7,2.7,2.7,0,0,1-.66-.27.82.82,0,0,0-.91.06l-.2.15-.19-.2.15-.19a.83.83,0,0,0,.06-.92,2.48,2.48,0,0,1-.27-.65.84.84,0,0,0-.7-.61L10.3,5V4.73l.24,0a.84.84,0,0,0,.7-.61,2.48,2.48,0,0,1,.27-.65.83.83,0,0,0-.06-.92l-.15-.19.19-.2.2.15a.82.82,0,0,0,.91.06,3.16,3.16,0,0,1,.66-.27.82.82,0,0,0,.6-.69l0-.24h.28l0,.24a.82.82,0,0,0,.6.69,3.81,3.81,0,0,1,.66.27.82.82,0,0,0,.92-.06l.19-.15.19.2-.14.19a.84.84,0,0,0-.07.92,2.48,2.48,0,0,1,.27.65.85.85,0,0,0,.7.61l.24,0V5l-.24,0A.84.84,0,0,0,16.82,5.64Z"/><path class="cls-1" d="M14,3h0a1.85,1.85,0,0,0-1.85,1.85,1.82,1.82,0,0,0,.54,1.3A1.85,1.85,0,0,0,14,6.71h0A1.85,1.85,0,1,0,14,3Zm.75,1.84A.75.75,0,1,1,14,4.11.75.75,0,0,1,14.78,4.86Z"/></g></g></svg>