<svg xmlns="http://www.w3.org/2000/svg" viewBox="0 0 22.44 22.48"><defs><style>.cls-1{fill:#ff641f;}</style></defs><g id="Capa_2" data-name="Capa 2"><g id="Capa_1-2" data-name="Capa 1"><g id="Capa_2-3" data-name="Capa 2-3"><g id="Capa_1-3" data-name="Capa 1-3"><path id="Trazado_42" data-name="Trazado 42" class="cls-1" d="M14.57,15.74h0L14,15.43a6.61,6.61,0,0,0,0-1.09l.53-.32a1.24,1.24,0,0,0,.5-1.53l-.5-1.21a1.23,1.23,0,0,0-1.44-.73l-.6.16a5.6,5.6,0,0,0-.77-.77c.06-.2.11-.42.16-.6a1.25,1.25,0,0,0-.73-1.44L10,7.4a1.23,1.23,0,0,0-1.53.5l-.31.53A6.61,6.61,0,0,0,7,8.43c-.11-.18-.21-.36-.32-.53a1.24,1.24,0,0,0-1.53-.5L4,7.9a1.23,1.23,0,0,0-.72,1.44l.15.6a5.53,5.53,0,0,0-.76.77L2,10.55a1.25,1.25,0,0,0-1.45.73L.09,12.5A1.24,1.24,0,0,0,.59,14l.54.31a6.61,6.61,0,0,0,0,1.09l-.54.32a1.23,1.23,0,0,0-.5,1.52l.5,1.22A1.26,1.26,0,0,0,2,19.21l.6-.15a6.15,6.15,0,0,0,.76.77c0,.2-.1.42-.15.6A1.27,1.27,0,0,0,4,21.88l1.21.5a1.63,1.63,0,0,0,.48.09,1.23,1.23,0,0,0,1-.6L7,21.34a6.61,6.61,0,0,0,1.09,0l.31.53a1.19,1.19,0,0,0,1.06.6,1.09,1.09,0,0,0,.47-.09l1.22-.5a1.26,1.26,0,0,0,.73-1.44c-.05-.2-.1-.4-.16-.6a6.22,6.22,0,0,0,.77-.77l.6.15a1.23,1.23,0,0,0,1.44-.73l.5-1.22a1.23,1.23,0,0,0-.5-1.52ZM10.14,20c0,.16.09.32.13.49l-.62.25-.25-.42a1.25,1.25,0,0,0-1.22-.62,4,4,0,0,1-1.2,0,1.24,1.24,0,0,0-1.22.61c-.08.15-.17.3-.26.44l-.61-.24L5,20a1.24,1.24,0,0,0-.42-1.3,4.77,4.77,0,0,1-.84-.84,1.23,1.23,0,0,0-1.3-.42L2,17.61,1.72,17l.42-.25a1.24,1.24,0,0,0,.61-1.22,4.82,4.82,0,0,1,0-1.2,1.22,1.22,0,0,0-.6-1.25c-.15-.09-.3-.17-.42-.26L2,12.18l.49.13a1.22,1.22,0,0,0,1.3-.42,5.56,5.56,0,0,1,.84-.84A1.24,1.24,0,0,0,5,9.75c0-.16-.09-.32-.13-.49L5.5,9l.25.42A1.24,1.24,0,0,0,7,10a4.82,4.82,0,0,1,1.2,0,1.24,1.24,0,0,0,1.22-.61c.08-.15.17-.29.25-.42l.62.25-.13.49a1.22,1.22,0,0,0,.42,1.3,4.77,4.77,0,0,1,.84.84,1.22,1.22,0,0,0,1.3.42l.52-.13.24.63-.42.26a1.22,1.22,0,0,0-.62,1.21,4.82,4.82,0,0,1,0,1.2A1.22,1.22,0,0,0,13,16.7l.42.26-.25.61-.49-.13a1.24,1.24,0,0,0-1.3.42,4.77,4.77,0,0,1-.84.84A1.23,1.23,0,0,0,10.14,20Z"/><path id="Trazado_43" data-name="Trazado 43" class="cls-1" d="M11,13.48a3.67,3.67,0,0,0-6.77,2.8,3.61,3.61,0,0,0,2,2,3.67,3.67,0,0,0,2.8,0H9A3.69,3.69,0,0,0,11,13.48ZM9.49,15.66A2,2,0,0,1,8.4,16.77h0a2.1,2.1,0,1,1,1.18-1.25s0,.09-.05.13Z"/><path id="Trazado_44" data-name="Trazado 44" class="cls-1" d="M21.62,4.33h0l-.39-.06A5,5,0,0,0,21,3.63l.23-.31A1,1,0,0,0,21.1,2l-.67-.68a1,1,0,0,0-1.29-.09l-.31.23a5,5,0,0,0-.64-.26L18.13.84a1,1,0,0,0-1-.84H16.2a1,1,0,0,0-1,.84,2.63,2.63,0,0,1-.06.39,4,4,0,0,0-.64.27l-.31-.24a1,1,0,0,0-1.29.1L12.24,2a1,1,0,0,0-.09,1.28l.24.31a5.11,5.11,0,0,0-.27.64l-.39.06a1,1,0,0,0-.84,1v1a1,1,0,0,0,.84,1l.39.06a5.11,5.11,0,0,0,.27.64l-.24.32a1,1,0,0,0,.1,1.28l.68.68a1,1,0,0,0,1.28.1l.32-.24a6.14,6.14,0,0,0,.64.27,1.74,1.74,0,0,0,.05.39,1,1,0,0,0,1,.84h.95a1,1,0,0,0,1-.84,2.28,2.28,0,0,1,.06-.39,5,5,0,0,0,.64-.26l.32.24a1,1,0,0,0,1.26-.1l.68-.68a1,1,0,0,0,.1-1.29L21,8a5,5,0,0,0,.26-.64l.39-.06a1,1,0,0,0,.84-1v-1a1,1,0,0,0-.82-1ZM20,6.72a2.7,2.7,0,0,1-.33.78,1,1,0,0,0,.07,1.07l.17.24L19.68,9l-.23-.18a1,1,0,0,0-1.09-.08,3.15,3.15,0,0,1-.78.33,1,1,0,0,0-.71.84l0,.28H16.5l0-.28a1,1,0,0,0-.72-.84A3.09,3.09,0,0,1,15,8.78a1,1,0,0,0-1.09.08L13.65,9l-.21-.22.17-.23a1,1,0,0,0,.08-1.09,3,3,0,0,1-.33-.78A1,1,0,0,0,12.52,6l-.29,0V5.64l.29,0a1,1,0,0,0,.84-.71,3,3,0,0,1,.32-.78A1,1,0,0,0,13.6,3l-.17-.23.23-.27.23.18A1,1,0,0,0,15,2.77a3.29,3.29,0,0,1,.78-.32,1,1,0,0,0,.72-.84l0-.29h.33l0,.29a1,1,0,0,0,.72.84,3.77,3.77,0,0,1,.78.32,1,1,0,0,0,1.08-.07l.24-.18.23.24L19.74,3a1,1,0,0,0-.07,1.09,3.77,3.77,0,0,1,.32.78,1,1,0,0,0,.84.72l.29,0V6l-.29,0A1,1,0,0,0,20,6.72Z"/><path id="Trazado_45" data-name="Trazado 45" class="cls-1" d="M16.68,3.59h0a2.2,2.2,0,0,0,0,4.39h0a2.2,2.2,0,0,0,.21-4.39Zm.89,2.2a.9.9,0,1,1-.89-.9.89.89,0,0,1,.89.9Z"/></g></g></g></g></svg>