<svg xmlns="http://www.w3.org/2000/svg" viewBox="0 0 31.79 35.51"><defs><style>.cls-1{fill:#ff641f;}</style></defs><g id="Capa_2" data-name="Capa 2"><g id="Capa_1-2" data-name="Capa 1"><g id="Capa_2-3" data-name="Capa 2-3"><g id="Capa_1-3" data-name="Capa 1-3"><path id="Trazado_39" data-name="Trazado 39" class="cls-1" d="M31.78,20.45a3,3,0,0,0-3-3.05H25.19V12.64a6.72,6.72,0,0,0-1-12.1L22.8,0V4.52l-1,.6-1-.6V0L19.44.54a6.72,6.72,0,0,0-.92,12.14v1.39H14.1L8.51,18.58H7.78V16.91H0v18.6H7.78v-2l3.8,2h15v-.06A3,3,0,0,0,29,31.88a3,3,0,0,0-.33-.9,3,3,0,0,0,.94-4,3.05,3.05,0,0,0,.89-4,3.06,3.06,0,0,0,1.27-2.47ZM17.18,6.82a4.73,4.73,0,0,1,1.59-3.49V5.68l3.06,1.89,3.05-1.89V3.33a4.64,4.64,0,0,1,.44,6.55,4.69,4.69,0,0,1-1.6,1.18l-.61.27V17.4H20.6v-6L20,11.08a4.64,4.64,0,0,1-2.79-4.26ZM5.69,33.42H2.08V19H5.7Zm20.33,0H12.08l-4.3-2.24V20.66H9.24l5.6-4.5h3.65v3.32H28.74a1,1,0,0,1,0,1.93H22.67v2.08h5.2a1,1,0,1,1,0,1.92h-6.1V27.5H27a1,1,0,0,1,0,1.92H20.82V31.5H26a1,1,0,1,1,0,1.92Z"/></g></g></g></g></svg>