<svg xmlns="http://www.w3.org/2000/svg" viewBox="0 0 165.87 165.99"><defs><style>.cls-1{fill:#253eaf;}</style></defs><g id="Capa_2" data-name="Capa 2"><g id="Capa_1-2" data-name="Capa 1"><g id="Grupo_8" data-name="Grupo 8"><g id="Elipse_16" data-name="Elipse 16"><path class="cls-1" d="M84.49,166l-.4-20c1.16,0,2.33-.08,3.47-.16L89,165.78C87.52,165.88,86,166,84.49,166Zm-11.34-.55c-1.49-.18-3-.4-4.49-.65l3.4-19.71c1.13.19,2.28.36,3.41.49Zm27.1-1.27-4.16-19.56c1.12-.23,2.24-.51,3.34-.81l5.26,19.3C103.22,163.5,101.73,163.86,100.25,164.17Zm-42.64-2.09c-1.44-.46-2.88-1-4.3-1.5l7.12-18.69c1.08.41,2.17.79,3.26,1.14Zm57.81-2.71L107.57,141c1.05-.45,2.11-.94,3.13-1.44l8.85,17.93C118.2,158.14,116.81,158.78,115.42,159.37ZM43,155.81c-1.33-.73-2.66-1.51-3.94-2.31l10.59-17c1,.6,2,1.19,3,1.74Zm86.36-4-11.2-16.57c.94-.63,1.88-1.31,2.8-2l12.1,15.92C131.84,150,130.59,150.93,129.35,151.77Zm-99.5-4.91c-1.16-1-2.31-2-3.41-3L40,129.2c.84.78,1.71,1.55,2.6,2.28Zm111.75-5.21-14.16-14.13c.82-.81,1.62-1.66,2.38-2.51l14.9,13.34C143.71,139.47,142.67,140.58,141.6,141.65ZM18.66,135.6c-.95-1.17-1.89-2.37-2.78-3.59L32,120.19c.68.92,1.39,1.84,2.11,2.72Zm133-6.2-16.57-11.2c.64-1,1.26-1.93,1.85-2.91l17.16,10.27C153.37,126.85,152.55,128.14,151.7,129.4Zm-141.89-7c-.71-1.31-1.4-2.68-2.05-4l18.09-8.53c.49,1,1,2.07,1.55,3.07Zm149.49-7-18.41-7.81c.45-1.06.87-2.14,1.26-3.21L161,111.18C160.45,112.59,159.89,114,159.3,115.42ZM3.63,107.77c-.45-1.43-.86-2.91-1.23-4.38l19.38-4.9c.29,1.11.6,2.23.94,3.32Zm160.45-7.53L144.51,96.1c.24-1.12.44-2.26.62-3.39l19.76,3.05C164.66,97.25,164.39,98.76,164.08,100.24Zm-163.7-8c-.17-1.49-.3-3-.38-4.52l20-1.12c.06,1.15.16,2.31.28,3.44Zm165.48-7.76-20-.33c0-.37,0-.74,0-1.12,0-.79,0-1.57,0-2.35l20-.73c0,1,.06,2,.06,3.08C165.87,83.48,165.87,84,165.86,84.45ZM20.07,77.93.13,76.34c.12-1.5.29-3,.49-4.51L20.44,74.5C20.29,75.63,20.16,76.78,20.07,77.93Zm124.86-5.86c-.2-1.13-.43-2.26-.69-3.38l19.48-4.51c.34,1.46.65,3,.91,4.45Zm-122.76-6L2.9,60.7c.41-1.45.86-2.92,1.35-4.35l18.94,6.42C22.82,63.85,22.48,65,22.17,66.06Zm119.55-5.6c-.4-1.06-.85-2.13-1.32-3.18l18.26-8.17c.62,1.38,1.2,2.79,1.74,4.19ZM26.51,54.81l-17.88-9c.68-1.36,1.4-2.71,2.15-4l17.36,9.94C27.57,52.77,27,53.79,26.51,54.81Zm109.84-5.13c-.61-1-1.25-1.93-1.9-2.87L150.8,35.3c.87,1.23,1.71,2.51,2.52,3.79ZM32.92,44.6,17.08,32.39C18,31.2,19,30,20,28.87l15.16,13C34.36,42.79,33.62,43.69,32.92,44.6ZM129,40.1c-.77-.83-1.59-1.66-2.41-2.45l13.87-14.41c1.09,1.05,2.17,2.15,3.19,3.25ZM41.17,35.78l-13.24-15c1.13-1,2.3-2,3.48-2.92L43.82,33.56C42.92,34.27,42,35,41.17,35.78ZM120,32.09c-.93-.68-1.89-1.34-2.84-2L128,13.36c1.26.82,2.52,1.69,3.75,2.58Zm-69.07-3.4L40.77,11.45c1.3-.76,2.63-1.5,4-2.19L54,27C52.93,27.54,51.91,28.11,50.92,28.69Zm58.69-2.75c-1-.49-2.1-1-3.16-1.38L113.93,6c1.4.57,2.81,1.18,4.18,1.82ZM61.85,23.59,55.17,4.74c1.43-.51,2.88-1,4.33-1.4l5.63,19.19C64,22.85,62.92,23.21,61.85,23.59Zm36.41-1.7c-1.12-.28-2.25-.53-3.38-.75l3.8-19.63c1.48.28,3,.61,4.43,1ZM73.54,20.68,70.61.9c1.47-.22,3-.4,4.5-.54L77,20.27C75.82,20.38,74.66,20.52,73.54,20.68Zm12.79-.59C85.18,20,84,20,82.87,20V0c1.51,0,3,0,4.53.12Z"/></g></g></g></g></svg>