<svg xmlns="http://www.w3.org/2000/svg" viewBox="0 0 43.48 31.39"><defs><style>.cls-1{fill:#ff641f;}</style></defs><g id="Capa_2" data-name="Capa 2"><g id="Capa_1-2" data-name="Capa 1"><g id="Capa_2-2" data-name="Capa 2"><g id="Capa_1-3" data-name="Capa 1"><path id="Trazado_32" data-name="Trazado 32" class="cls-1" d="M28.39.13H3.73A3.75,3.75,0,0,0,0,3.87v6.58a3.75,3.75,0,0,0,3.73,3.74H6.86l2.41,2H5a1,1,0,0,0-1,1H4V29.25a1,1,0,0,0,1,1h6a1,1,0,0,0,1-1h1.78l3.79,1.9a1,1,0,0,0,.45.1h7.55a3.5,3.5,0,0,0,3.5-3.5V19.52a2.32,2.32,0,0,0-2.33-2.32H21.3l.6-3h6.49a3.75,3.75,0,0,0,3.73-3.74V3.87A3.75,3.75,0,0,0,28.39.13ZM6,28.24v-10h4v10Zm20.77-9a.32.32,0,0,1,.32.32v.68h-1a1,1,0,1,0,0,2h1v1h-1a1,1,0,1,0,0,2h1v1h-1a1,1,0,1,0,0,2H27a1.48,1.48,0,0,1-1.4,1H18.31l-3.81-1.9a1,1,0,0,0-.45-.1h-2v-8.1a8.29,8.29,0,0,0,6.71-5.29l1-2.68h.31v1.91l-1,4.92a1,1,0,0,0,.78,1.18.75.75,0,0,0,.21,0h6.71ZM13.05,16.85V14.19h3.32A6.24,6.24,0,0,1,13.05,16.85Zm17.07-6.4a1.73,1.73,0,0,1-1.73,1.73h-6.3v-2a1,1,0,0,0-1-1h-2a1,1,0,0,0-.94.65l-.88,2.36h-5.2a1,1,0,0,0-1,1v1.88L7.87,12.41a1,1,0,0,0-.64-.23H3.73A1.73,1.73,0,0,1,2,10.45V3.87A1.73,1.73,0,0,1,3.73,2.14H28.39a1.74,1.74,0,0,1,1.73,1.73Z"/><circle id="Elipse_26" data-name="Elipse 26" class="cls-1" cx="9.03" cy="7.16" r="2.01"/><circle id="Elipse_27" data-name="Elipse 27" class="cls-1" cx="16.06" cy="7.16" r="2.01"/><circle id="Elipse_28" data-name="Elipse 28" class="cls-1" cx="23.09" cy="7.16" r="2.01"/><path id="Trazado_33" data-name="Trazado 33" class="cls-1" d="M40,.11h0l-.35,0a4,4,0,0,0-1.29,0L38,.1h0a4.55,4.55,0,0,0-3.53,4.41V24.75l2.79,5.57a1.94,1.94,0,0,0,3.47,0l2.79-5.57V4.52A4.54,4.54,0,0,0,40,.11ZM39,29.36,37,25.51h3.85ZM38,12.42v11.1H36.42V12.42Zm3.53,0v11.1H40V12.42Zm0-3.38v1.4H36.42V9Zm0-4.52V7.05H36.42V4.52a2.54,2.54,0,1,1,5.07-.1Z"/></g></g></g></g></svg>