<svg xmlns="http://www.w3.org/2000/svg" viewBox="0 0 56.6 47.75"><defs><style>.cls-1{fill:#253eaf;}</style></defs><g id="Capa_2" data-name="Capa 2"><g id="Capa_1-2" data-name="Capa 1"><g id="Capa_2-2" data-name="Capa 2-2"><g id="Capa_1-2-2" data-name="Capa 1-2"><path id="Trazado_34" data-name="Trazado 34" class="cls-1" d="M40.23,31.63l-2.81,0h0a.94.94,0,0,1-.88-.6l-.92-2.28a.94.94,0,0,1,.23-1l2-1.93-2-2a1,1,0,0,1-.22-1.05l1-2.27a1,1,0,0,1,.9-.58l2.81.09,0-2.82a1,1,0,0,1,.6-.89l2.28-.92a.94.94,0,0,1,1.05.23l1.93,2,2-2a.94.94,0,0,1,1-.22l2.27,1a1,1,0,0,1,.58.9l-.08,2.81,2.81,0a1,1,0,0,1,.89.6L56.53,23A.94.94,0,0,1,56.3,24l-2,1.93,2,2A.94.94,0,0,1,56.48,29l-.95,2.26a1,1,0,0,1-.9.58l-2.81-.08,0,2.81a1,1,0,0,1-.59.89L49,36.35a.94.94,0,0,1-1-.23l-1.93-2-2,2a.94.94,0,0,1-1,.21l-2.27-.95a1,1,0,0,1-.58-.9Zm.41-1.9a1,1,0,0,1,.73.32c.15.17.3.32.46.47a.94.94,0,0,1,.31.73l-.08,2.6,1.08.45L45,32.44a1,1,0,0,1,.73-.29h.67a1,1,0,0,1,.73.3l1.79,1.9L50,33.91l0-2.63a1,1,0,0,1,.31-.72,6.09,6.09,0,0,0,.44-.44.94.94,0,0,1,.73-.31l2.64.08.45-1.07L52.56,27a1,1,0,0,1-.29-.73,5.23,5.23,0,0,0,0-.56.94.94,0,0,1,.3-.73l2-1.85L54.09,22l-2.71,0a.92.92,0,0,1-.72-.31c-.12-.13-.24-.25-.37-.37a1,1,0,0,1-.3-.73l.08-2.71L49,17.46l-1.89,1.95a1,1,0,0,1-.73.29h-.53a.94.94,0,0,1-.72-.3l-1.87-2-1.08.44,0,2.69a.93.93,0,0,1-.32.72c-.14.13-.27.25-.4.39a.92.92,0,0,1-.72.3l-2.68-.08L37.65,23l1.89,1.84a1,1,0,0,1,.29.75c0,.2,0,.41,0,.62a.93.93,0,0,1-.3.72l-1.91,1.81L38,29.77Z"/><path id="Trazado_35" data-name="Trazado 35" class="cls-1" d="M44.62,22.41a3.81,3.81,0,1,1-2.07,2A3.8,3.8,0,0,1,44.62,22.41Zm-.33,4.23a1.9,1.9,0,1,0,1-2.47,1.9,1.9,0,0,0-1,2.47Z"/><path id="Trazado_36" data-name="Trazado 36" class="cls-1" d="M24.67,37.87l1.65-.64-.71-1.62a1,1,0,0,1,.2-1.06l1.26-1.26a.94.94,0,0,1,1.05-.2l1.63.71.64-1.65a1,1,0,0,1,.88-.61h1.79a1,1,0,0,1,.89.61l.64,1.65,1.62-.71a1,1,0,0,1,1.06.2l1.26,1.26a1,1,0,0,1,.2,1.06L38,37.23l1.65.64a1,1,0,0,1,.6.89v1.79a.94.94,0,0,1-.6.88L38,42.07l.71,1.63a.94.94,0,0,1-.2,1L37.27,46a1,1,0,0,1-1.06.2l-1.62-.71L34,47.15a1,1,0,0,1-.89.6H31.27a1,1,0,0,1-.89-.6l-.64-1.65-1.62.71a.93.93,0,0,1-1.05-.2L25.8,44.75a.94.94,0,0,1-.2-1l.71-1.63-1.65-.64a.94.94,0,0,1-.6-.88V38.76a1,1,0,0,1,.6-.89Zm1.29,2,1.62.63a1,1,0,0,1,.56.57,3.2,3.2,0,0,0,.16.39,1,1,0,0,1,0,.79l-.7,1.59.34.35,1.57-.69a.93.93,0,0,1,.8,0l.41.17a1,1,0,0,1,.57.55l.62,1.59h.49L33,44.26a.94.94,0,0,1,.57-.55l.42-.17a1,1,0,0,1,.79,0l1.57.69.35-.34L36,42.28a1,1,0,0,1,0-.79c.06-.13.11-.26.16-.39a1,1,0,0,1,.55-.58l1.62-.63V39.4l-1.65-.64a.93.93,0,0,1-.55-.55L36,37.85a1,1,0,0,1,0-.79l.71-1.62-.34-.35-1.65.72a1,1,0,0,1-.78,0l-.33-.14a.92.92,0,0,1-.56-.55l-.65-1.67h-.49l-.66,1.67a.92.92,0,0,1-.56.55l-.33.14a1,1,0,0,1-.78,0L28,35.09l-.35.35.72,1.62a1,1,0,0,1,0,.79,2.75,2.75,0,0,0-.15.36,1,1,0,0,1-.55.56L26,39.41Z"/><path id="Trazado_37" data-name="Trazado 37" class="cls-1" d="M32.16,36.67a3,3,0,1,1-3,3h0A3,3,0,0,1,32.16,36.67Zm0,4.13a1.12,1.12,0,1,0-1.11-1.11h0a1.11,1.11,0,0,0,1.11,1.11Z"/><path id="Trazado_38" data-name="Trazado 38" class="cls-1" d="M1,17.26H5a1,1,0,0,1,1,1,1.3,1.3,0,0,1-.07.33,1.88,1.88,0,0,0-.11.62,1.91,1.91,0,0,0,3.82.09v-.09a1.58,1.58,0,0,0-.09-.57,3.82,3.82,0,0,1-1.81-3.25H4.84a1,1,0,0,1-.95-1V1A1,1,0,0,1,4.84,0H31.65a1,1,0,0,1,1,1V27.77a.94.94,0,0,1-1,.95H18.21a1,1,0,0,1-.87-.56,3.8,3.8,0,0,1-2,.56v2.93a1,1,0,0,1-.95,1H1a1,1,0,0,1-.95-1V18.22a1,1,0,0,1,1-1Zm4.84-3.82h3a1,1,0,0,1,1,1,.8.8,0,0,1-.07.34,1.88,1.88,0,0,0-.11.62,1.92,1.92,0,0,0,1.87,2,1.9,1.9,0,0,0,1.95-1.86.14.14,0,0,0,0-.09,1.48,1.48,0,0,0-.11-.62,1,1,0,0,1,.56-1.23,1,1,0,0,1,.34-.06h3V11.53a3.82,3.82,0,0,1,0-7.64v-2H5.79Zm12.8,9.46a1.88,1.88,0,0,0,.57.09,1.91,1.91,0,0,0,0-3.82,1.88,1.88,0,0,0-.62.11,1,1,0,0,1-1.23-.56.92.92,0,0,1-.06-.33v-3h-1.9a3.8,3.8,0,0,1-.56,2,1,1,0,0,1,.56.87v2.86A3.8,3.8,0,0,1,18.6,22.9Zm.57-21V5a1,1,0,0,1-.95,1,1,1,0,0,1-.34-.06,1.88,1.88,0,0,0-.62-.11,1.91,1.91,0,0,0,0,3.82,1.45,1.45,0,0,0,.62-.11,1,1,0,0,1,1.23.56,1,1,0,0,1,.06.34v3h1.91a3.83,3.83,0,0,1,7.65,0h2V1.91Zm0,24.9H30.69V15.35h-3.1a1,1,0,0,1-1-.95,1,1,0,0,1,.07-.34,1.88,1.88,0,0,0,.11-.62,1.91,1.91,0,0,0-3.82,0,1.48,1.48,0,0,0,.11.62,1,1,0,0,1-.9,1.29h-3v1.91a3.82,3.82,0,0,1,0,7.64h0ZM1.91,30.7H13.44V27.6a1,1,0,0,1,1-1,1,1,0,0,1,.34.06,1.67,1.67,0,0,0,.62.12,1.92,1.92,0,0,0,0-3.83,1.67,1.67,0,0,0-.62.12,1,1,0,0,1-1.23-.56,1,1,0,0,1-.06-.34v-3H11.53a3.82,3.82,0,0,1-7.64,0h-2Z"/></g></g></g></g></svg>