<svg xmlns="http://www.w3.org/2000/svg" viewBox="0 0 32.94 32.93"><defs><style>.cls-1{fill:#ff641f;}</style></defs><g id="Capa_2" data-name="Capa 2"><g id="Capa_1-2" data-name="Capa 1"><g id="spanner"><g id="Grupo_68" data-name="Grupo 68"><g id="Grupo_67" data-name="Grupo 67"><path id="Trazado_22" data-name="Trazado 22" class="cls-1" d="M32.52,5.72A1.18,1.18,0,0,0,31,5a1.11,1.11,0,0,0-.34.18L27.42,7.6,25.36,5.53l2.4-3.3A1.18,1.18,0,0,0,27.49.58a1.3,1.3,0,0,0-.31-.16,8.35,8.35,0,0,0-8.5,13.86A8.46,8.46,0,0,0,24.6,16.7a8.29,8.29,0,0,0,5.9-2.43h0A8.42,8.42,0,0,0,32.52,5.72ZM28.83,12.6A6,6,0,1,1,24.57,2.35h.19L22.87,5A1.18,1.18,0,0,0,23,6.49L26.48,10a1.17,1.17,0,0,0,1.54.11l2.56-1.92a6.12,6.12,0,0,1-1.75,4.44Z"/></g></g><g id="Grupo_70" data-name="Grupo 70"><g id="Grupo_69" data-name="Grupo 69"><path id="Trazado_23" data-name="Trazado 23" class="cls-1" d="M22.48,14.6,7.36,29.72a2.93,2.93,0,0,1-4.15-4.15h0L18.3,10.5,16.63,8.83,1.55,23.91A5.29,5.29,0,0,0,9,31.39L24.14,16.27Z"/></g></g><g id="Grupo_72" data-name="Grupo 72"><g id="Grupo_71" data-name="Grupo 71"><path id="Trazado_24" data-name="Trazado 24" class="cls-1" d="M6.58,26.27a1.69,1.69,0,0,0-2.38,0l0,0a1.65,1.65,0,0,0-.51,1.22A1.74,1.74,0,0,0,5.4,29.22a1.49,1.49,0,0,0,1.18-.55,1.69,1.69,0,0,0,0-2.38Z"/></g></g></g></g></g></svg>