<svg xmlns="http://www.w3.org/2000/svg" viewBox="0 0 14.39 17.82"><defs><style>.cls-1{fill:#fff;}</style></defs><g id="Capa_2" data-name="Capa 2"><g id="Capa_1-2" data-name="Capa 1"><path class="cls-1" d="M13.18,5.7H12.11V3.77A3.86,3.86,0,0,0,8.2,0H6.06A3.76,3.76,0,0,0,3.4,1.07,3.7,3.7,0,0,0,2.28,3.7v2H1.21A1.21,1.21,0,0,0,0,6.91,1.22,1.22,0,0,0,1.14,8.12v1.4a1.16,1.16,0,0,0,1.17,1.16h.12a1.48,1.48,0,0,0,1.34.86H5.42V12a.65.65,0,0,0,.57.64v.25l-2.11.35a1.77,1.77,0,0,0-1.45,1.4l-.09.43a1.49,1.49,0,0,0,.44,2.65,1.59,1.59,0,0,0,.43.06,1.4,1.4,0,0,0,.71-.19,1.44,1.44,0,0,0,.76-1.52l.16-.64L6,15.33v.11a1.49,1.49,0,0,0,1.3,2.37,1.45,1.45,0,0,0,1-.5,1.49,1.49,0,0,0,.09-1.87v-.11l1.13.14.17.66a1.33,1.33,0,0,0,0,.2,1.5,1.5,0,0,0,1.49,1.49h0a1.51,1.51,0,0,0,1.05-.44,1.48,1.48,0,0,0,.44-1.05,1.52,1.52,0,0,0-.63-1.23L12,14.68a1.77,1.77,0,0,0-1.45-1.4L8.4,12.93v-.25A.65.65,0,0,0,9,12v-.5h1.65A1.48,1.48,0,0,0,12,10.68h.12a1.17,1.17,0,0,0,1.17-1.16V8.12a1.21,1.21,0,0,0-.07-2.42ZM6.45,16.32a.74.74,0,0,1,.74-.74h0a.74.74,0,0,1,.74.74.75.75,0,0,1-.75.74A.74.74,0,0,1,6.45,16.32Zm-2.5,0a.75.75,0,0,1-1.49,0,.75.75,0,0,1,1.49,0Zm7.23.74a.74.74,0,1,1,0-1.48h0a.73.73,0,0,1,.52.21.74.74,0,0,1-.53,1.27ZM6,1.28H8.21a2.55,2.55,0,0,1,2.62,2.49v4.8l-.22,0H3.77l-.21,0V3.77A2.46,2.46,0,0,1,6,1.28ZM3.77,9.83h6.85a.21.21,0,0,1,.2.13.41.41,0,0,1-.4.3H4a.4.4,0,0,1-.4-.3A.21.21,0,0,1,3.77,9.83Z"/></g></g></svg>