<svg xmlns="http://www.w3.org/2000/svg" viewBox="0 0 18.56 23"><defs><style>.cls-1{fill:#253eaf;}</style></defs><g id="Capa_2" data-name="Capa 2"><g id="Capa_1-2" data-name="Capa 1"><g id="Capa_2-6" data-name="Capa 2-6"><g id="Capa_1-6" data-name="Capa 1-6"><path id="Trazado_54" data-name="Trazado 54" class="cls-1" d="M17,7.35H15.66V4.85A5,5,0,0,0,10.61,0H7.84A4.81,4.81,0,0,0,3,4.77V7.35H1.61a1.56,1.56,0,1,0-.1,3.12v1.82A1.51,1.51,0,0,0,3,13.79h.16a1.92,1.92,0,0,0,1.73,1.1H7v.65a.81.81,0,0,0,.73.81v.33L5,17.14A2.31,2.31,0,0,0,3.15,19L3,19.5A1.92,1.92,0,0,0,2.47,22a1.9,1.9,0,0,0,2.58.78h0a1.93,1.93,0,0,0,1-1.7,2.06,2.06,0,0,0,0-.26L6.25,20l1.46-.19v.15a1.93,1.93,0,1,0,3.16,2.2,1.94,1.94,0,0,0,0-2.23v-.14l1.46.18.22.85a1.13,1.13,0,0,0,0,.26A1.93,1.93,0,0,0,14.43,23h0a1.92,1.92,0,0,0,1.11-3.5l-.11-.54a2.31,2.31,0,0,0-1.86-1.82l-2.73-.45v-.33a.81.81,0,0,0,.73-.81v-.64H13.7a1.93,1.93,0,0,0,1.73-1.1h.16a1.52,1.52,0,0,0,1.5-1.5v-1.8a1.54,1.54,0,0,0,1-.45,1.53,1.53,0,0,0,.46-1.1A1.56,1.56,0,0,0,17,7.35ZM8.37,21a1,1,0,0,1,1-.95h0a1,1,0,1,1-1,1ZM5.14,21a.67.67,0,0,0,.1-.95.68.68,0,1,0-.12,1Zm9.33,1a1,1,0,0,1,0-1.91h0a1,1,0,0,1,0,1.91ZM7.78,1.64h2.86A3.3,3.3,0,0,1,14,4.86V11a1.62,1.62,0,0,0-.31,0H4.9l-.28,0V4.86A3.2,3.2,0,0,1,7.78,1.64Zm-2.88,11h8.82a.27.27,0,0,1,.26.16.53.53,0,0,1-.51.39H5.16a.52.52,0,0,1-.53-.39A.29.29,0,0,1,4.9,12.67Z"/></g></g></g></g></svg>