<svg xmlns="http://www.w3.org/2000/svg" viewBox="0 0 21.32 11.81"><defs><style>.cls-1{fill:#fff;}</style></defs><g id="Capa_2" data-name="Capa 2"><g id="Capa_1-2" data-name="Capa 1"><rect class="cls-1" x="2.11" y="4.23" width="6.87" height="1.23"/><rect class="cls-1" x="2.11" y="6.35" width="6.87" height="1.23"/><path class="cls-1" d="M12,4.32a2.21,2.21,0,1,0,2.2-2.2A2.21,2.21,0,0,0,12,4.32Zm1.24,0a1,1,0,1,1,1,1A1,1,0,0,1,13.22,4.32Z"/><path class="cls-1" d="M20.18,2.12H17.89A4.29,4.29,0,0,0,12,.58a4.19,4.19,0,0,0-1.56,1.54H1.15A1.14,1.14,0,0,0,0,3.26V9.61a1.14,1.14,0,0,0,1.15,1.14h1v1.06h2.3V10.75h12.5v1.06h2.3V10.75h1a1.14,1.14,0,0,0,1.15-1.14V3.26A1.14,1.14,0,0,0,20.18,2.12ZM18.39,3.35h1.7V9.52H1.23V3.35H10a4.26,4.26,0,0,0,.48,3.16,4.25,4.25,0,0,0,2.63,2,4.32,4.32,0,0,0,5.3-5.16Zm-1.12,1a3.09,3.09,0,1,1-3.09-3.08h0A3.09,3.09,0,0,1,17.27,4.32Z"/></g></g></svg>