<svg xmlns="http://www.w3.org/2000/svg" viewBox="0 0 28 15.53"><defs><style>.cls-1{fill:#ff641f;}</style></defs><g id="Capa_2" data-name="Capa 2"><g id="Capa_1-2" data-name="Capa 1"><g id="Capa_2-7" data-name="Capa 2-7"><g id="Capa_1-7" data-name="Capa 1-7"><rect id="Rect치ngulo_243" data-name="Rect치ngulo 243" class="cls-1" x="2.77" y="5.56" width="9.02" height="1.62"/><rect id="Rect치ngulo_244" data-name="Rect치ngulo 244" class="cls-1" x="2.77" y="8.33" width="9.02" height="1.62"/><path id="Trazado_55" data-name="Trazado 55" class="cls-1" d="M15.73,5.67a2.9,2.9,0,1,0,2.9-2.89h0A2.9,2.9,0,0,0,15.73,5.67Zm1.62,0a1.28,1.28,0,1,1,.37.91A1.29,1.29,0,0,1,17.35,5.67Z"/><path id="Trazado_56" data-name="Trazado 56" class="cls-1" d="M26.49,2.78h-3a5.65,5.65,0,0,0-9.73,0H1.5A1.51,1.51,0,0,0,0,4.28v8.35a1.5,1.5,0,0,0,1.5,1.5H2.78v1.4h3v-1.4H22.22v1.4h3v-1.4h1.27A1.51,1.51,0,0,0,28,12.63V4.28a1.51,1.51,0,0,0-1.51-1.5ZM24.12,4.4h2.23v8.1H1.62V4.4H13.1a5.68,5.68,0,1,0,11,2.74,5.77,5.77,0,0,0,0-2.74ZM22.65,5.67a4,4,0,1,1-4-4h0a4.05,4.05,0,0,1,4.05,4.05Z"/></g></g></g></g></svg>