<svg xmlns="http://www.w3.org/2000/svg" viewBox="0 0 16.96 16.96"><defs><style>.cls-1{fill:#fff;}</style></defs><g id="Capa_2" data-name="Capa 2"><g id="Capa_1-2" data-name="Capa 1"><path id="meeting-room" class="cls-1" d="M15,4a2,2,0,1,0-2-2A2,2,0,0,0,15,4Zm0-2.65a.66.66,0,1,1-.66.66A.66.66,0,0,1,15,1.33ZM2,4A2,2,0,1,0,0,2,2,2,0,0,0,2,4ZM2,1.33A.66.66,0,1,1,1.33,2,.66.66,0,0,1,2,1.33ZM15,4.6h0c-1.37,0-1.89,1-2.22,2l-.51,1.54h-.78V6.59a2,2,0,0,0-2-2h-2a2,2,0,0,0-2,2V8.12H4.72L4.21,6.58c-.33-1-.85-2-2.22-2H2a2,2,0,0,0-2,2V10.2a2,2,0,0,0,1.33,1.88h0a.9.9,0,0,0,.22.06.66.66,0,0,1,.39.6V17H3.31V12.75a1.77,1.77,0,0,0-.08-.56H4a.67.67,0,0,1,.66.66V17H6V12.85a2,2,0,0,0-2-2H1.94l-.23-.06a.65.65,0,0,1-.38-.6V6.59A.65.65,0,0,1,2,5.93c.3,0,.61,0,1,1.07.17.51.66,2,.66,2l.15.45H13.2L13.35,9s.49-1.48.66-2c.36-1.07.67-1.07,1-1.07a.67.67,0,0,1,.66.66V10.2a.68.68,0,0,1-.39.6l-.23.06H13a2,2,0,0,0-2,2V17h1.32V12.85a.67.67,0,0,1,.67-.66h.74a2.1,2.1,0,0,0-.08.56V17H15V12.75a.67.67,0,0,1,.39-.6,1,1,0,0,0,.23-.06h.05A2,2,0,0,0,17,10.2V6.59A2,2,0,0,0,15,4.6Zm-8.16,2a.67.67,0,0,1,.67-.66h2a.67.67,0,0,1,.67.66V8.12H6.82ZM8.48,4a2,2,0,1,0-2-2A2,2,0,0,0,8.48,4Zm0-2.65A.66.66,0,1,1,7.82,2,.65.65,0,0,1,8.48,1.33Z"/></g></g></svg>