<svg xmlns="http://www.w3.org/2000/svg" viewBox="0 0 24.3 24.3"><defs><style>.cls-1{fill:#ff641f;}</style></defs><g id="Capa_2" data-name="Capa 2"><g id="Capa_1-2" data-name="Capa 1"><g id="Capa_2-2" data-name="Capa 2"><g id="Capa_1-3" data-name="Capa 1"><path id="meeting-room" class="cls-1" d="M21.45,5.7A2.85,2.85,0,1,0,18.6,2.85,2.86,2.86,0,0,0,21.45,5.7Zm0-3.8a.95.95,0,0,1,0,1.89.93.93,0,0,1-.94-1,1,1,0,0,1,.28-.67A1,1,0,0,1,21.45,1.9ZM2.84,5.7A2.85,2.85,0,1,0,0,2.84H0A2.85,2.85,0,0,0,2.84,5.7Zm0-3.8a1,1,0,1,1-.94,1v0a1,1,0,0,1,.94-.94ZM21.46,6.58h0c-2,0-2.71,1.44-3.18,2.83l-.75,2.23H16.41V9.44a2.85,2.85,0,0,0-2.83-2.86H10.73A2.85,2.85,0,0,0,7.88,9.43v2.21H6.76C6.53,11,6.19,9.92,6,9.44,5.57,8,4.81,6.59,2.85,6.59h0A2.84,2.84,0,0,0,0,9.44H0v5.17A2.83,2.83,0,0,0,1.9,17.3H2l.33.08a1,1,0,0,1,.55.86V24.3h1.9v-6a2.84,2.84,0,0,0-.12-.81H5.74a1,1,0,0,1,1,1V24.3H8.6V18.42a2.85,2.85,0,0,0-2.85-2.85h-3a1.67,1.67,0,0,0-.32-.08.94.94,0,0,1-.55-.86V9.45a1,1,0,0,1,.94-.95c.43,0,.87,0,1.39,1.51.24.74.94,2.83.94,2.85l.22.65H18.9l.22-.65s.7-2.11.94-2.85c.51-1.51,1-1.51,1.39-1.51a1,1,0,0,1,.94.95v5.17a.93.93,0,0,1-.55.86l-.32.08H18.6a2.86,2.86,0,0,0-2.85,2.85V24.3h1.9V18.42a.94.94,0,0,1,.94-1h1.08a2.63,2.63,0,0,0-.13.8v6h1.9v-6a.94.94,0,0,1,.56-.86l.32-.08h.08a2.85,2.85,0,0,0,1.9-2.71V9.45a2.85,2.85,0,0,0-2.83-2.87ZM9.77,9.45a1,1,0,0,1,1-.95h2.84a1,1,0,0,1,.95.95v2.2H9.77ZM12.15,5.7a2.85,2.85,0,1,0-2-.84A2.85,2.85,0,0,0,12.15,5.7Zm0-3.8a.95.95,0,1,1-1,1h0A.94.94,0,0,1,12.15,1.9Z"/></g></g></g></g></svg>