<svg xmlns="http://www.w3.org/2000/svg" viewBox="0 0 16.25 16.25"><defs><style>.cls-1{fill:#fff;}</style></defs><g id="Capa_2" data-name="Capa 2"><g id="Capa_1-2" data-name="Capa 1"><ellipse class="cls-1" cx="2.47" cy="7.24" rx="0.71" ry="0.53"/><ellipse class="cls-1" cx="5.3" cy="4.41" rx="0.61" ry="0.46"/><path class="cls-1" d="M5.33,7.88a3,3,0,1,0,3.05,3A3,3,0,0,0,5.33,7.88Zm1.91,3A1.91,1.91,0,1,1,5.33,9,1.92,1.92,0,0,1,7.24,10.92Z"/><path class="cls-1" d="M5.33,9.72h0a1.21,1.21,0,1,0,1.2,1.2A1.2,1.2,0,0,0,5.33,9.72Zm.7,1.2a.71.71,0,0,1-.7.7.7.7,0,1,1,.7-.7Z"/><path class="cls-1" d="M5.33,6.55a2.15,2.15,0,1,0,0-4.3h0a2.15,2.15,0,0,0,0,4.3Zm0-3.2a1.05,1.05,0,1,1-1,1.05A1,1,0,0,1,5.33,3.35Z"/><ellipse class="cls-1" cx="8.13" cy="7.24" rx="0.71" ry="0.53"/><circle class="cls-1" cx="12.01" cy="13.78" r="0.71"/><circle class="cls-1" cx="13.78" cy="13.78" r="0.71"/><path class="cls-1" d="M12.29,6.82a1.6,1.6,0,0,0,.53.09,1.51,1.51,0,0,0,.68-.16,1.57,1.57,0,0,0,.89-1.42V1.69a1.21,1.21,0,0,1,.58,1,1.13,1.13,0,0,1-.34.82.64.64,0,0,0,.91.91,2.38,2.38,0,0,0,.71-1.73A2.46,2.46,0,0,0,14.9.5L14,.07a.65.65,0,0,0-.49,0,.67.67,0,0,0-.38.32.72.72,0,0,0-.06.29V3.78a1.62,1.62,0,0,0-1,.13,1.58,1.58,0,0,0,.15,2.91Zm-.12-1.49a.65.65,0,0,1,1.29,0,.65.65,0,0,1-1.29,0Z"/><path class="cls-1" d="M14.68,7.49h-4V1.57A1.57,1.57,0,0,0,9.06,0H1.57A1.58,1.58,0,0,0,0,1.57V14.68a1.57,1.57,0,0,0,1.57,1.57H14.68a1.57,1.57,0,0,0,1.57-1.57V9.06A1.57,1.57,0,0,0,14.68,7.49ZM9.35,1.57V14.68a.29.29,0,0,1-.29.29H1.57a.29.29,0,0,1-.28-.29V1.57a.29.29,0,0,1,.28-.28H9.06A.29.29,0,0,1,9.35,1.57ZM15,9.06v5.62a.29.29,0,0,1-.29.29H10.61a2.83,2.83,0,0,0,0-.29V8.77h4A.29.29,0,0,1,15,9.06Z"/><path class="cls-1" d="M14.06,10.92a1.25,1.25,0,0,0-1.24-1.24h0a1.24,1.24,0,1,0,1.24,1.24Zm-.79,0a.46.46,0,1,1-.91,0,.46.46,0,0,1,.46-.45A.45.45,0,0,1,13.27,10.92Z"/></g></g></svg>