<svg xmlns="http://www.w3.org/2000/svg" viewBox="0 0 23 23"><defs><style>.cls-1{fill:#ff641f;}</style></defs><g id="Capa_2" data-name="Capa 2"><g id="Capa_1-2" data-name="Capa 1"><g id="Capa_2-5" data-name="Capa 2-5"><g id="Capa_1-5" data-name="Capa 1-5"><ellipse id="Elipse_29" data-name="Elipse 29" class="cls-1" cx="4" cy="10.5" rx="1" ry="0.5"/><ellipse id="Elipse_30" data-name="Elipse 30" class="cls-1" cx="7.5" cy="6.24" rx="0.86" ry="0.64"/><path id="Trazado_48" data-name="Trazado 48" class="cls-1" d="M7.54,11.15a4.31,4.31,0,1,0,4.32,4.31h0A4.32,4.32,0,0,0,7.54,11.15Zm2.7,4.3a2.7,2.7,0,1,1-2.7-2.69h0a2.69,2.69,0,0,1,2.7,2.69Z"/><path id="Trazado_49" data-name="Trazado 49" class="cls-1" d="M7.55,13.76h0a1.7,1.7,0,1,0,1.7,1.7,1.7,1.7,0,0,0-1.7-1.7Zm1,1.7a1,1,0,0,0,1-1,1,1,0,1,0-2,0,1,1,0,0,0,1,1Z"/><path id="Trazado_50" data-name="Trazado 50" class="cls-1" d="M7.55,9.27a3.05,3.05,0,0,0,0-6.1h0a3.05,3.05,0,1,0,0,6.1Zm0-4.53a1.51,1.51,0,1,1-1.5,1.51h0A1.5,1.5,0,0,1,7.55,4.74Z"/><ellipse id="Elipse_31" data-name="Elipse 31" class="cls-1" cx="12" cy="10.5" rx="1" ry="0.5"/><circle id="Elipse_32" data-name="Elipse 32" class="cls-1" cx="17" cy="20" r="1"/><circle id="Elipse_33" data-name="Elipse 33" class="cls-1" cx="20" cy="20" r="1"/><path id="Trazado_51" data-name="Trazado 51" class="cls-1" d="M17.39,9.65a2.23,2.23,0,0,0,2.84-1.36,2.36,2.36,0,0,0,.14-.74V2.39a1.75,1.75,0,0,1,.82,1.46A1.71,1.71,0,0,1,20.69,5a.91.91,0,0,0,0,1.29.92.92,0,0,0,1.3,0h0a3.41,3.41,0,0,0,1-2.45A3.5,3.5,0,0,0,21.09.71L19.86.1a.9.9,0,0,0-.7,0,.89.89,0,0,0-.5.45,1,1,0,0,0-.1.41V5.36a2.23,2.23,0,0,0-1.17,4.29Zm-.16-2.1a.91.91,0,1,1,.84,1,1,1,0,0,1-.41-.13A.9.9,0,0,1,17.23,7.55Z"/><path id="Trazado_52" data-name="Trazado 52" class="cls-1" d="M20.77,10.59H15.05V2.22A2.24,2.24,0,0,0,12.82,0H2.22A2.23,2.23,0,0,0,0,2.23V20.77A2.23,2.23,0,0,0,2.23,23H20.77A2.23,2.23,0,0,0,23,20.77V12.82A2.23,2.23,0,0,0,20.77,10.59ZM13.23,2.23V20.77a.41.41,0,0,1-.41.41H2.23a.41.41,0,0,1-.41-.4h0V2.23a.41.41,0,0,1,.41-.41H12.82A.41.41,0,0,1,13.23,2.23Zm8,10.59v8a.4.4,0,0,1-.39.41H15a1.84,1.84,0,0,0,0-.41V12.41h5.74A.41.41,0,0,1,21.18,12.82Z"/><path id="Trazado_53" data-name="Trazado 53" class="cls-1" d="M19.89,15.46a1.77,1.77,0,0,0-1.75-1.76h0a1.76,1.76,0,1,0,1.75,1.76Zm-1.12,0a.64.64,0,1,1-.63-.64h0A.63.63,0,0,1,18.77,15.46Z"/></g></g></g></g></svg>