<svg xmlns="http://www.w3.org/2000/svg" xmlns:xlink="http://www.w3.org/1999/xlink" viewBox="0 0 53.34 53.34"><defs><style>.cls-1{fill:#0644b3;}.cls-2{fill:url(#Degradado_sin_nombre_34);}.cls-3{fill:url(#Degradado_sin_nombre_18);}.cls-4{fill:#f50;}.cls-5{fill:url(#Degradado_sin_nombre_18-2);}</style><linearGradient id="Degradado_sin_nombre_34" x1="26.67" y1="27.23" x2="26.67" y2="1.13" gradientUnits="userSpaceOnUse"><stop offset="0.68" stop-color="#fff" stop-opacity="0"/><stop offset="0.73" stop-color="#fff" stop-opacity="0.02"/><stop offset="0.78" stop-color="#fff" stop-opacity="0.07"/><stop offset="0.83" stop-color="#fff" stop-opacity="0.16"/><stop offset="0.89" stop-color="#fff" stop-opacity="0.28"/><stop offset="0.95" stop-color="#fff" stop-opacity="0.44"/><stop offset="1" stop-color="#fff" stop-opacity="0.6"/></linearGradient><linearGradient id="Degradado_sin_nombre_18" x1="33.31" y1="48.44" x2="33.31" y2="4.13" gradientUnits="userSpaceOnUse"><stop offset="0" stop-color="#fd7517" stop-opacity="0"/><stop offset="0.04" stop-color="#fd7517" stop-opacity="0.02"/><stop offset="0.07" stop-color="#fd7517" stop-opacity="0.07"/><stop offset="0.12" stop-color="#fd7517" stop-opacity="0.16"/><stop offset="0.16" stop-color="#fd7517" stop-opacity="0.28"/><stop offset="0.2" stop-color="#fd7517" stop-opacity="0.44"/><stop offset="0.25" stop-color="#fd7517" stop-opacity="0.64"/><stop offset="0.29" stop-color="#fd7517" stop-opacity="0.86"/><stop offset="0.31" stop-color="#fd7517"/><stop offset="0.47" stop-color="#fff"/><stop offset="0.75" stop-color="#fd7517"/></linearGradient><linearGradient id="Degradado_sin_nombre_18-2" x1="20.42" y1="48.44" x2="20.42" y2="4.13" xlink:href="#Degradado_sin_nombre_18"/></defs><g id="Capa_2" data-name="Capa 2"><g id="Capa_2-2" data-name="Capa 2"><circle class="cls-1" cx="26.67" cy="26.67" r="26.67"/><ellipse class="cls-2" cx="26.67" cy="14.18" rx="19.13" ry="13.05"/><path class="cls-3" d="M34.44,4.13s-3.22,3.09-3.22,11.13,8.23,8.6,8.23,19.7c0,8.83-8.75,13.48-8.75,13.48s4.37-6.19,4.37-11.74-1.78-9.17-3.64-11-4.55-7.08-4.23-10.35,3.9-8.58,3.9-8.58Z"/><path class="cls-4" d="M31.43,25.67s-3.91-4.39-3.91-10.06S34.44,4.13,34.44,4.13h-.82S27,8.77,27,15.35C27,21.07,31.43,25.67,31.43,25.67Z"/><path class="cls-4" d="M30.7,48.44h1s10.36-7.5,7.3-17.65C39,30.79,41,39.34,30.7,48.44Z"/><path class="cls-5" d="M21.55,4.13s-3.22,3.09-3.22,11.13,8.23,8.6,8.23,19.7c0,8.83-8.75,13.48-8.75,13.48s4.38-6.19,4.38-11.74-1.79-9.17-3.65-11S14,18.59,14.31,15.32s3.9-8.58,3.9-8.58Z"/><path class="cls-4" d="M18.54,25.67s-3.91-4.39-3.91-10.06S21.55,4.13,21.55,4.13h-.81s-6.67,4.64-6.67,11.22C14.07,21.07,18.54,25.67,18.54,25.67Z"/><path class="cls-4" d="M17.81,48.44h1s10.36-7.5,7.31-17.65C26.11,30.79,28.12,39.34,17.81,48.44Z"/></g></g></svg>