<svg xmlns="http://www.w3.org/2000/svg" xmlns:xlink="http://www.w3.org/1999/xlink" viewBox="0 0 189 53.34"><defs><style>.cls-1{fill:#0644b3;}.cls-2{fill:url(#Degradado_sin_nombre_34);}.cls-3{fill:url(#Degradado_sin_nombre_18);}.cls-4{fill:#f50;}.cls-5{fill:url(#Degradado_sin_nombre_18-2);}.cls-6{fill:#fd7517;}</style><linearGradient id="Degradado_sin_nombre_34" x1="26.67" y1="27.23" x2="26.67" y2="1.13" gradientUnits="userSpaceOnUse"><stop offset="0.68" stop-color="#fff" stop-opacity="0"/><stop offset="0.73" stop-color="#fff" stop-opacity="0.02"/><stop offset="0.78" stop-color="#fff" stop-opacity="0.07"/><stop offset="0.83" stop-color="#fff" stop-opacity="0.16"/><stop offset="0.89" stop-color="#fff" stop-opacity="0.28"/><stop offset="0.95" stop-color="#fff" stop-opacity="0.44"/><stop offset="1" stop-color="#fff" stop-opacity="0.6"/></linearGradient><linearGradient id="Degradado_sin_nombre_18" x1="33.31" y1="48.44" x2="33.31" y2="4.13" gradientUnits="userSpaceOnUse"><stop offset="0" stop-color="#fd7517" stop-opacity="0"/><stop offset="0.04" stop-color="#fd7517" stop-opacity="0.02"/><stop offset="0.07" stop-color="#fd7517" stop-opacity="0.07"/><stop offset="0.12" stop-color="#fd7517" stop-opacity="0.16"/><stop offset="0.16" stop-color="#fd7517" stop-opacity="0.28"/><stop offset="0.2" stop-color="#fd7517" stop-opacity="0.44"/><stop offset="0.25" stop-color="#fd7517" stop-opacity="0.64"/><stop offset="0.29" stop-color="#fd7517" stop-opacity="0.86"/><stop offset="0.31" stop-color="#fd7517"/><stop offset="0.47" stop-color="#fff"/><stop offset="0.75" stop-color="#fd7517"/></linearGradient><linearGradient id="Degradado_sin_nombre_18-2" x1="20.42" y1="48.44" x2="20.42" y2="4.13" xlink:href="#Degradado_sin_nombre_18"/></defs><g id="Capa_2" data-name="Capa 2"><g id="Capa_2-2" data-name="Capa 2"><circle class="cls-1" cx="26.67" cy="26.67" r="26.67"/><ellipse class="cls-2" cx="26.67" cy="14.18" rx="19.13" ry="13.05"/><path class="cls-3" d="M34.44,4.13s-3.22,3.09-3.22,11.13,8.23,8.6,8.23,19.7c0,8.83-8.75,13.48-8.75,13.48s4.37-6.19,4.37-11.74-1.78-9.17-3.64-11-4.55-7.08-4.23-10.35,3.9-8.58,3.9-8.58Z"/><path class="cls-4" d="M31.43,25.67s-3.91-4.39-3.91-10.06S34.44,4.13,34.44,4.13h-.82S27,8.77,27,15.35C27,21.07,31.43,25.67,31.43,25.67Z"/><path class="cls-4" d="M30.7,48.44h1s10.36-7.5,7.3-17.65C39,30.79,41,39.34,30.7,48.44Z"/><path class="cls-5" d="M21.55,4.13s-3.22,3.09-3.22,11.13,8.23,8.6,8.23,19.7c0,8.83-8.75,13.48-8.75,13.48s4.38-6.19,4.38-11.74-1.79-9.17-3.65-11S14,18.59,14.31,15.32s3.9-8.58,3.9-8.58Z"/><path class="cls-4" d="M18.54,25.67s-3.91-4.39-3.91-10.06S21.55,4.13,21.55,4.13h-.81s-6.67,4.64-6.67,11.22C14.07,21.07,18.54,25.67,18.54,25.67Z"/><path class="cls-4" d="M17.81,48.44h1s10.36-7.5,7.31-17.65C26.11,30.79,28.12,39.34,17.81,48.44Z"/><path class="cls-1" d="M92.21,41.76V37.05H90.44v4.63a1.85,1.85,0,0,0,1.85,1.86h5.35V41.76Z"/><path class="cls-1" d="M125.16,41.76V37.05h-1.77v4.63a1.85,1.85,0,0,0,1.85,1.86h5.36V41.76Z"/><rect class="cls-1" x="151.59" y="37.05" width="1.77" height="6.48"/><polygon class="cls-1" points="150.93 37.05 141.59 37.05 141.59 38.64 145.38 38.64 145.38 43.54 147.15 43.54 147.15 38.64 150.93 38.64 150.93 37.05"/><path class="cls-1" d="M61.62,38.93v-.29H69.7V37.05H61.62A1.59,1.59,0,0,0,60,38.64v.81A1.59,1.59,0,0,0,61.62,41h6.95v.4a.52.52,0,0,1-.52.52H60.47v1.59h7.64a2,2,0,0,0,2-2h0a2,2,0,0,0-2-2h-6A.51.51,0,0,1,61.62,38.93Z"/><path class="cls-1" d="M104.36,38.93v-.29h8.08V37.05h-8.08a1.59,1.59,0,0,0-1.59,1.59v.81A1.59,1.59,0,0,0,104.36,41h7v.4a.52.52,0,0,1-.52.52h-7.58v1.59h7.64a2.05,2.05,0,0,0,2.05-2h0a2,2,0,0,0-2.05-2h-6A.51.51,0,0,1,104.36,38.93Z"/><path class="cls-1" d="M175.51,38.93v-.29h8.09V37.05h-8.09a1.59,1.59,0,0,0-1.58,1.59v.81A1.58,1.58,0,0,0,175.51,41h7v.4A.52.52,0,0,1,182,42h-7.59v1.59H182a2.05,2.05,0,0,0,2.05-2h0a2,2,0,0,0-2.05-2h-6A.51.51,0,0,1,175.51,38.93Z"/><path class="cls-1" d="M80.47,39.15v2.29a2.1,2.1,0,0,0,2.1,2.1h5.15a2.1,2.1,0,0,0,2.1-2.1V39.15a2.1,2.1,0,0,0-2.1-2.1H82.57A2.1,2.1,0,0,0,80.47,39.15Zm1.77,2.39V38.88a.22.22,0,0,1,.23-.22h5.36a.22.22,0,0,1,.22.22v2.66a.22.22,0,0,1-.22.22H82.47A.22.22,0,0,1,82.24,41.54Z"/><path class="cls-1" d="M113.51,39.15v2.29a2.1,2.1,0,0,0,2.1,2.1h5.15a2.1,2.1,0,0,0,2.1-2.1V39.15a2.1,2.1,0,0,0-2.1-2.1h-5.15A2.1,2.1,0,0,0,113.51,39.15Zm1.77,2.39V38.88a.22.22,0,0,1,.23-.22h5.35a.22.22,0,0,1,.23.22v2.66a.22.22,0,0,1-.23.22h-5.35A.22.22,0,0,1,115.28,41.54Z"/><path class="cls-1" d="M154,39.15v2.29a2.1,2.1,0,0,0,2.1,2.1h5.15a2.1,2.1,0,0,0,2.1-2.1V39.15a2.1,2.1,0,0,0-2.1-2.1h-5.15A2.1,2.1,0,0,0,154,39.15Zm1.77,2.39V38.88a.22.22,0,0,1,.23-.22h5.35a.22.22,0,0,1,.23.22v2.66a.22.22,0,0,1-.23.22H156A.22.22,0,0,1,155.81,41.54Z"/><path class="cls-1" d="M79.87,37.05H76.53l-3.48,2.19a1.35,1.35,0,0,0-.42.44V37.05H70.86v6.49h1.77V40.91a1.35,1.35,0,0,0,.42.44l3.48,2.19h3.34L74.31,40.3Z"/><path class="cls-1" d="M171.7,37.05v4.81l-4.82-4.55a1,1,0,0,0-.66-.26h-.8a1.35,1.35,0,0,0-1.35,1.36v5.13h1.62V38.6l4.94,4.68a1,1,0,0,0,.65.26H172a1.36,1.36,0,0,0,1.36-1.36V37.05Z"/><path class="cls-1" d="M139,37.05v4.49a.22.22,0,0,1-.22.22h-5.36a.22.22,0,0,1-.22-.22V37.05h-1.77v4.39a2.1,2.1,0,0,0,2.1,2.1h5.15a2.1,2.1,0,0,0,2.1-2.1V37.05Z"/><circle class="cls-6" cx="187.09" cy="41.58" r="1.91"/></g></g></svg>