<svg xmlns="http://www.w3.org/2000/svg" viewBox="0 0 18.28 17.55"><defs><style>.cls-1{fill:#fff;}</style></defs><g id="Capa_2" data-name="Capa 2"><g id="Capa_1-2" data-name="Capa 1"><path class="cls-1" d="M5.85,10.23H11a.72.72,0,0,0,.72-.72V9.39l1.08.72a.72.72,0,0,0,.4.12.69.69,0,0,0,.34-.09.72.72,0,0,0,.38-.63V4.38a.72.72,0,0,0-.38-.63.7.7,0,0,0-.74,0l-1.08.72V4.38A.72.72,0,0,0,11,3.66H5.85c-1.35,0-1.46,2.51-1.46,3.28S4.5,10.23,5.85,10.23Zm4.4-5.13v.75a.71.71,0,0,0,1.12.59l1.08-.71V8.16l-1.08-.72a.73.73,0,0,0-.54-.1.7.7,0,0,0-.46.31.75.75,0,0,0-.12.39v.75H6.1a5.26,5.26,0,0,1-.27-1.86A6.17,6.17,0,0,1,6.07,5.1Z"/><path class="cls-1" d="M15.37,0H2.92A2.92,2.92,0,0,0,0,2.92V11a2.92,2.92,0,0,0,2.92,2.92h.74v2.94a.72.72,0,0,0,.42.65.6.6,0,0,0,.3.07.76.76,0,0,0,.46-.16L9,13.89h6.33A2.92,2.92,0,0,0,18.28,11v-8A2.92,2.92,0,0,0,15.37,0Zm-11,12.45H2.92A1.48,1.48,0,0,1,1.44,11v-8A1.48,1.48,0,0,1,2.92,1.44H15.37a1.47,1.47,0,0,1,1.47,1.48V11a1.47,1.47,0,0,1-1.47,1.48H8.78a.73.73,0,0,0-.47.17L5.1,15.29V13.17A.72.72,0,0,0,4.38,12.45Z"/></g></g></svg>