<svg xmlns="http://www.w3.org/2000/svg" viewBox="0 0 16.99 17.45"><defs><style>.cls-1{fill:#fff;}</style></defs><g id="Capa_2" data-name="Capa 2"><g id="Capa_1-2" data-name="Capa 1"><path class="cls-1" d="M11.51,2h-6L0,0V15.74l5.48-2h6l5.48,2V0Zm.8,5.23V3.12l3.33-1.2V7.2Zm0,5.42V8.55h3.33v5.27ZM11,8.55v3.87H6V8.55Zm0-5.23V7.2H6V3.32ZM4.69,8.55v4.07l-3.34,1.2V8.55Zm0-5.43V7.2H1.35V1.92Z"/><path class="cls-1" d="M10.36,14.58h0a5.59,5.59,0,0,0-3.72,0c-1,.38-1.09,1-1.09,1.27s.14.9,1.1,1.28a5.57,5.57,0,0,0,3.72,0c1-.38,1.09-1,1.09-1.28S11.31,15,10.36,14.58Zm-.44,1.27a3.54,3.54,0,0,1-1.42.25H8.39a3.41,3.41,0,0,1-1.31-.25A3.5,3.5,0,0,1,8.5,15.6,3.54,3.54,0,0,1,9.92,15.85Z"/></g></g></svg>