<svg xmlns="http://www.w3.org/2000/svg" viewBox="0 0 22.92 22"><defs><style>.cls-1{fill:#253eaf;}</style></defs><g id="Capa_2" data-name="Capa 2"><g id="Capa_1-2" data-name="Capa 1"><g id="Capa_2-2" data-name="Capa 2-2"><g id="Capa_1-2-2" data-name="Capa 1-2"><path id="Trazado_40" data-name="Trazado 40" class="cls-1" d="M7.33,12.82h6.42a.89.89,0,0,0,.89-.89v-.15l1.33.89a.91.91,0,0,0,1.41-.73s0,0,0,0V5.49a.88.88,0,0,0-.89-.9.92.92,0,0,0-.51.15l-1.32.88V5.49a.88.88,0,0,0-.89-.88H7.33c-1.69,0-1.82,3.14-1.82,4.11S5.64,12.82,7.33,12.82ZM12.84,6.4v.93a.89.89,0,0,0,1.39.73l1.36-.89v3.06l-1.36-.88A.88.88,0,0,0,13,9.57a.93.93,0,0,0-.16.51V11H7.64a6.58,6.58,0,0,1-.33-2.33,7.52,7.52,0,0,1,.3-2.31Z"/><path id="Trazado_41" data-name="Trazado 41" class="cls-1" d="M19.26,0H3.65A3.67,3.67,0,0,0,0,3.65v10.1a3.67,3.67,0,0,0,3.65,3.66h.94V21.1a.9.9,0,0,0,.52.82,1,1,0,0,0,.38.08.88.88,0,0,0,.58-.21l5.25-4.38h7.94a3.67,3.67,0,0,0,3.66-3.66V3.65A3.67,3.67,0,0,0,19.26,0ZM5.49,15.6H3.65A1.86,1.86,0,0,1,1.8,13.75V3.65A1.85,1.85,0,0,1,3.65,1.8H19.26a1.85,1.85,0,0,1,1.85,1.85v10.1a1.85,1.85,0,0,1-1.85,1.85H11a.94.94,0,0,0-.58.21l-4,3.36V16.51a.91.91,0,0,0-.9-.91Z"/></g></g></g></g></svg>