<svg xmlns="http://www.w3.org/2000/svg" viewBox="0 0 22.05 22.64"><defs><style>.cls-1{fill:#253eaf;}</style></defs><g id="Capa_2" data-name="Capa 2"><g id="Capa_1-2" data-name="Capa 1"><g id="Capa_2-4" data-name="Capa 2-4"><g id="Capa_1-4" data-name="Capa 1-4"><path id="Trazado_46" data-name="Trazado 46" class="cls-1" d="M14.94,2.56H7.11L0,0V20.42l7.11-2.54h7.83l7.11,2.56V0Zm1,6.77V4.05L20.3,2.49V9.33Zm0,7V11.09H20.3v6.84Zm-1.76-5.29v5H7.83v-5Zm0-6.78v5H7.83v-5ZM6.08,11.09v5.29L1.75,17.93V11.09Zm0-7V9.33H1.75V2.49Z"/><path id="Trazado_47" data-name="Trazado 47" class="cls-1" d="M13.45,18.91h0a7.28,7.28,0,0,0-4.83,0c-1.23.5-1.41,1.25-1.41,1.66s.18,1.16,1.42,1.66a7.28,7.28,0,0,0,4.83,0c1.23-.5,1.41-1.25,1.41-1.65S14.67,19.41,13.45,18.91Zm-.58,1.66a4.61,4.61,0,0,1-1.84.32H10.9a4.72,4.72,0,0,1-1.71-.32A4.45,4.45,0,0,1,11,20.24a4.48,4.48,0,0,1,1.84.33Z"/></g></g></g></g></svg>